<?xml version="1.0" encoding="UTF-8"?>
<svg id="katman_1" xmlns="http://www.w3.org/2000/svg" version="1.1" viewBox="0 0 662.04 175.09">
  <!-- Generator: Adobe Illustrator 29.4.0, SVG Export Plug-In . SVG Version: 2.1.0 Build 152)  -->
  <defs>
    <style>
      .st0 {
        font-family: DaxlinePro-Medium, DaxlinePro;
        font-size: 28.38px;
        font-weight: 500;
      }

      .st1 {
        font-family: DaxlinePro-ExtraBold, DaxlinePro;
        font-size: 58.26px;
        font-weight: 700;
      }

      .st2 {
        fill: #057538;
      }
    </style>
  </defs>
  <path class="st2" d="M395.13.87c.73,0,1.44.24,2.06.63,1.46.9,3.13,1.18,4.67,2.36,7.99,5.2,35.5,41.63,42.46,36.53l23.38-21.14c.18-.16.37-.31.58-.44,1.95-1.15,4.22-1.31,6.28-.43.35.15.67.38.95.64l35.63,33c.19.17.35.37.5.58,4.85,6.66,26.98,6.87,28.53,11.97,2.35,7.73-9.35,6.71-14.31,6.28-24.48-2.11-31.2-22.71-49.57-34.43-5.15-3.28-8.79,1.43-12.96,4.93-11.58,9.73-25.81,26.24-38.03,33.97-4.06,2.57-11.28,2.07-13.51-2.48s14.88-13.36,17.29-20.47c.46-1.34.04-2.83-1-3.8l-27.83-26.1c-2.77-2.51-5.7-3.28-9.25-2.35-.47.12-.9.36-1.28.66-6.78,5.37-39.25,28.58-39.36,32.57-.08,2.89,9.58,12.12,11.96,15.05,5.21,6.43,20.98,25.08,21.93,32.06,3.13,22.84-21.3,45.36-59.5,39.21-11.13-1.79-20.47-6.72-28.43-15.27-24.3-26.09,5.26-47.73,22.82-65.83.13-.14.27-.26.42-.37l3.89-2.9c1.95-1.46,1.98-4.38.06-5.88l-35.49-27.59c-.51-.4-1.11-.69-1.76-.74-2.02-.17-4.02.91-5.86,1.77-.26.12-.51.27-.74.46l-29.75,23.71c-1.12.89-1.68,2.36-1.29,3.74,1.93,6.82,19.2,13.95,13.79,22.44-3.4,5.34-10.81,1.51-14.55-1.35-11.08-8.5-22.79-23.97-34.03-31.97-1.63-1.16-4.12-2.81-6.1-3-9.47-.91-30.65,22.52-41.62,26.27-5.67,1.94-33.83,6.84-30.64-4.56,1.82-6.49,11.26-4.22,16.12-4.96,13.6-2.08,34.65-22.94,46.85-31.15,6.47-4.36,9.1-8.22,16.82-3.04,6.34,4.25,15.1,19.34,23.1,18.23.59-.08,1.15-.33,1.63-.68,11.95-8.67,22.59-19.86,34.44-28.52,7.06-5.16,10.17-9.68,18.8-4.01,13.63,8.95,26.35,24.7,39.62,34.38,1.56,1.14,3.09,2.56,4.94,2.99,1.02.23,2.09-.06,2.92-.7L392.35,1.63c.64-.49,1.43-.76,2.24-.76h.54ZM336.08,63.02c-2.85.52-21,18.17-23.57,21.52-15.52,20.22-9.1,40.92,17.35,43.31,26.25,2.38,49.14-10.56,32.68-38.68-2.63-4.5-16.8-21.57-20.69-24.3-2-1.41-3.1-2.34-5.76-1.85Z"/>
  <text class="st1" transform="translate(.15 125.13)"><tspan x="0" y="0">OKYAYLAR</tspan></text>
  <text class="st0" transform="translate(233.97 168.73)"><tspan x="0" y="0">Gaziantep Fıstığı</tspan></text>
  <text class="st1" transform="translate(394.72 125.13)"><tspan x="0" y="0">PISTACHIO</tspan></text>
</svg>