<?xml version="1.0" encoding="UTF-8"?>
<svg id="katman_1" xmlns="http://www.w3.org/2000/svg" version="1.1" viewBox="0 0 662.04 175.09">
  <!-- Generator: Adobe Illustrator 29.4.0, SVG Export Plug-In . SVG Version: 2.1.0 Build 152)  -->
  <defs>
    <style>
      .st0 {
        fill: #057538;
      }
    </style>
  </defs>
  <path class="st0" d="M395.13.87c.73,0,1.44.24,2.06.63,1.46.9,3.13,1.18,4.67,2.36,7.99,5.2,35.5,41.63,42.46,36.53l23.38-21.14c.18-.16.37-.31.58-.44,1.95-1.15,4.22-1.31,6.28-.43.35.15.67.38.95.64l35.63,33c.19.17.35.37.5.58,4.85,6.66,26.98,6.87,28.53,11.97,2.35,7.73-9.35,6.71-14.31,6.28-24.48-2.11-31.2-22.71-49.57-34.43-5.15-3.28-8.79,1.43-12.96,4.93-11.58,9.73-25.81,26.24-38.03,33.97-4.06,2.57-11.28,2.07-13.51-2.48s14.88-13.36,17.29-20.47c.46-1.34.04-2.83-1-3.8l-27.83-26.1c-2.77-2.51-5.7-3.28-9.25-2.35-.47.12-.9.36-1.28.66-6.78,5.37-39.25,28.58-39.36,32.57-.08,2.89,9.58,12.12,11.96,15.05,5.21,6.43,20.98,25.08,21.93,32.06,3.13,22.84-21.3,45.36-59.5,39.21-11.13-1.79-20.47-6.72-28.43-15.27-24.3-26.09,5.26-47.73,22.82-65.83.13-.14.27-.26.42-.37l3.89-2.9c1.95-1.46,1.98-4.38.06-5.88l-35.49-27.59c-.51-.4-1.11-.69-1.76-.74-2.02-.17-4.02.91-5.86,1.77-.26.12-.51.27-.74.46l-29.75,23.71c-1.12.89-1.68,2.36-1.29,3.74,1.93,6.82,19.2,13.95,13.79,22.44-3.4,5.34-10.81,1.51-14.55-1.35-11.08-8.5-22.79-23.97-34.03-31.97-1.63-1.16-4.12-2.81-6.1-3-9.47-.91-30.65,22.52-41.62,26.27-5.67,1.94-33.83,6.84-30.64-4.56,1.82-6.49,11.26-4.22,16.12-4.96,13.6-2.08,34.65-22.94,46.85-31.15,6.47-4.36,9.1-8.22,16.82-3.04,6.34,4.25,15.1,19.34,23.1,18.23.59-.08,1.15-.33,1.63-.68,11.95-8.67,22.59-19.86,34.44-28.52,7.06-5.16,10.17-9.68,18.8-4.01,13.63,8.95,26.35,24.7,39.62,34.38,1.56,1.14,3.09,2.56,4.94,2.99,1.02.23,2.09-.06,2.92-.7L392.35,1.63c.64-.49,1.43-.76,2.24-.76h.54ZM336.08,63.02c-2.85.52-21,18.17-23.57,21.52-15.52,20.22-9.1,40.92,17.35,43.31,26.25,2.38,49.14-10.56,32.68-38.68-2.63-4.5-16.8-21.57-20.69-24.3-2-1.41-3.1-2.34-5.76-1.85Z"/>
  <g>
    <path d="M18.91,125.83c-11.24,0-16.43-9.38-16.43-21.79s5.19-21.79,16.43-21.79,16.43,9.38,16.43,21.79-5.19,21.79-16.43,21.79ZM18.91,90.93c-4.31,0-6.52,4.95-6.52,13.11s2.21,13.11,6.52,13.11,6.52-4.95,6.52-13.11-2.21-13.11-6.52-13.11Z"/>
    <path d="M62.78,125.13l-11.59-20.57h-.12v20.57h-9.9v-42.18h9.9v18.93h.12l11.48-18.93h11.01l-12.58,20.27,12.88,21.91h-11.19Z"/>
    <path d="M96.11,108.76v16.37h-9.9v-16.37l-12-25.81h10.6l6.29,15.85h.12l6.29-15.85h10.66l-12.06,25.81Z"/>
    <path d="M132.87,125.13l-2.45-8.56h-13.4l-2.45,8.56h-10.37l13.63-42.18h11.77l13.63,42.18h-10.37ZM124.83,96.41c-.7-2.45-1.05-5.3-1.05-5.3h-.12s-.35,2.85-1.05,5.3l-3.73,12.99h9.67l-3.73-12.99Z"/>
    <path d="M161.19,108.76v16.37h-9.9v-16.37l-12-25.81h10.6l6.29,15.85h.12l6.29-15.85h10.66l-12.06,25.81Z"/>
    <path d="M176.69,125.13v-42.18h9.9v33.91h11.65v8.27h-21.56Z"/>
    <path d="M228.54,125.13l-2.45-8.56h-13.4l-2.45,8.56h-10.37l13.63-42.18h11.77l13.63,42.18h-10.37ZM220.5,96.41c-.7-2.45-1.05-5.3-1.05-5.3h-.12s-.35,2.85-1.05,5.3l-3.73,12.99h9.67l-3.73-12.99Z"/>
    <path d="M264.14,125.13l-4.6-12.53c-.82-2.27-2.45-3.84-5.01-3.84h-2.45v16.37h-9.73v-40.61c3.5-1.46,8.33-2.27,13.28-2.27,10.89,0,16.49,4.83,16.49,13.11,0,5.77-3.67,8.85-7.4,10.25v.12c2.21,1.28,3.79,3.67,4.84,6.47l5.01,12.93h-10.43ZM255.86,89.65c-1.34,0-2.91.17-3.79.47v11.65h3.79c4.37,0,6.52-1.92,6.52-5.83s-1.92-6.29-6.52-6.29Z"/>
  </g>
  <g>
    <path d="M244.64,169.05c-5.42,0-9.22-3.89-9.22-10.59s3.95-10.59,9.45-10.59c2.07,0,4.03.45,5.05,1.08l-1.05,2.53c-.82-.48-2.19-.88-3.89-.88-3.46,0-6.36,2.47-6.36,7.86s2.81,7.89,5.82,7.89c1.25,0,2.33-.2,2.72-.43v-6.58h-3.77v-2.47h6.78v11.1c-1.08.6-3.09,1.08-5.53,1.08Z"/>
    <path d="M259.93,169.05c-4.4,0-6.61-1.79-6.61-4.8,0-4.26,4.54-5.02,9.17-5.28v-.96c0-1.93-1.28-2.61-3.24-2.61-1.45,0-3.21.45-4.23.94l-.79-2.13c1.22-.54,3.29-1.08,5.33-1.08,3.66,0,5.88,1.42,5.88,5.19v9.65c-1.11.6-3.35,1.08-5.51,1.08ZM262.49,161.04c-3.12.17-6.24.43-6.24,3.15,0,1.62,1.25,2.61,3.6,2.61.99,0,2.16-.17,2.64-.4v-5.36Z"/>
    <path d="M268.02,168.73l6.75-12.83h-6.27v-2.47h10.67l-6.76,12.83h6.93v2.47h-11.32Z"/>
    <path d="M284.05,150.65c-1.02,0-1.84-.79-1.84-1.76s.82-1.76,1.84-1.76,1.84.79,1.84,1.76-.82,1.76-1.84,1.76ZM282.49,168.73v-15.3h3.12v15.3h-3.12Z"/>
    <path d="M295.37,169.05c-4.4,0-6.61-1.79-6.61-4.8,0-4.26,4.54-5.02,9.17-5.28v-.96c0-1.93-1.28-2.61-3.24-2.61-1.45,0-3.21.45-4.23.94l-.79-2.13c1.22-.54,3.29-1.08,5.33-1.08,3.66,0,5.88,1.42,5.88,5.19v9.65c-1.11.6-3.35,1.08-5.51,1.08ZM297.93,161.04c-3.12.17-6.24.43-6.24,3.15,0,1.62,1.25,2.61,3.6,2.61.99,0,2.16-.17,2.64-.4v-5.36Z"/>
    <path d="M313.79,168.73v-10.22c0-1.79-1.08-2.9-3.21-2.9-1.13,0-2.19.2-2.81.45v12.66h-3.09v-14.53c1.53-.62,3.49-1.08,5.88-1.08,4.29,0,6.36,1.87,6.36,5.11v10.5h-3.12Z"/>
    <path d="M325.77,168.93c-2.7,0-4.2-1.5-4.2-4.48v-8.69h-2.07v-2.33h2.07v-3.55l3.04-.94v4.48h3.09v2.33h-3.09v8.51c0,1.39.91,1.93,2.04,1.93.37,0,.79-.08,1.05-.2v2.58c-.37.17-1.13.34-1.93.34Z"/>
    <path d="M342.99,161.01l-10.16,1.42c.31,2.75,2.1,4.14,4.68,4.14,1.53,0,3.18-.37,4.23-.94l.91,2.33c-1.19.62-3.24,1.08-5.34,1.08-4.82,0-7.52-3.09-7.52-7.98s2.61-7.95,6.9-7.95c3.97,0,6.33,2.61,6.33,6.73,0,.37,0,.77-.03,1.16ZM336.64,155.39c-2.38,0-3.95,1.82-4,5l7.41-1.02c-.03-2.67-1.36-3.97-3.41-3.97Z"/>
    <path d="M351.85,168.9c-.94,0-1.99-.2-2.5-.37v6.3h-3.09v-20.63c1.08-.57,3.15-1.08,5.25-1.08,4.77,0,7.44,2.98,7.44,7.83s-2.47,7.95-7.09,7.95ZM351.56,155.56c-.85,0-1.79.2-2.21.4v10.19c.4.17,1.39.34,2.21.34,2.81,0,4.29-2.33,4.29-5.53s-1.5-5.39-4.29-5.39Z"/>
    <path d="M372.9,150.88v6.04h6.81v2.64h-6.81v9.17h-3.15v-20.55h10.61v2.7h-7.46Z"/>
    <path d="M383.51,168.73v-15.3h3.12v15.3h-3.12Z"/>
    <path d="M394.41,169.05c-1.79,0-3.66-.48-4.77-1.08l1.05-2.38c.79.48,2.47.99,3.63.99,1.67,0,2.78-.82,2.78-2.1,0-1.39-1.16-1.93-2.72-2.5-2.04-.77-4.34-1.7-4.34-4.57,0-2.53,1.96-4.29,5.36-4.29,1.84,0,3.38.45,4.46,1.08l-.96,2.16c-.68-.43-2.04-.91-3.15-.91-1.62,0-2.53.85-2.53,1.96,0,1.39,1.14,1.87,2.64,2.44,2.13.79,4.48,1.67,4.48,4.66,0,2.75-2.1,4.54-5.93,4.54Z"/>
    <path d="M408.63,168.93c-2.7,0-4.2-1.5-4.2-4.48v-8.69h-2.07v-2.33h2.07v-3.55l3.04-.94v4.48h3.09v2.33h-3.09v8.51c0,1.39.91,1.93,2.04,1.93.37,0,.79-.08,1.05-.2v2.58c-.37.17-1.14.34-1.93.34Z"/>
    <path d="M413.59,168.73v-15.3h3.12v15.3h-3.12Z"/>
    <path d="M426.22,175.12c-2.24,0-4.17-.54-5.45-1.16l.91-2.44c.99.54,2.61.96,4.26.96,2.53,0,3.75-1.33,3.75-3.8v-1.14c-.79.37-2.01.62-3.09.62-3.86,0-6.56-2.67-6.56-7.29,0-5.28,3.09-7.75,7.61-7.75,2.01,0,3.89.45,5.11,1.08v14.47c0,4.17-2.5,6.44-6.53,6.44ZM426.99,151.79c-2.5,0-3.89-1.56-4.03-4.03l1.79-.31c.2,1.56.88,2.41,2.24,2.41s2.02-.85,2.21-2.41l1.82.31c-.14,2.47-1.53,4.03-4.03,4.03ZM429.68,155.93c-.48-.2-1.33-.4-2.27-.4-2.41,0-4.26,1.53-4.26,5.22,0,3.35,1.62,5.02,4.03,5.02.85,0,1.93-.23,2.5-.54v-9.31Z"/>
    <path d="M436.63,168.73v-15.3h3.12v15.3h-3.12Z"/>
  </g>
  <g>
    <path d="M411.26,109.63c-1.17,0-2.56-.12-3.32-.23v15.73h-9.73v-40.61c3.38-1.46,7.75-2.27,12.82-2.27,10.95,0,16.89,5.42,16.89,13.81,0,7.81-5.54,13.57-16.66,13.57ZM411.15,89.65c-1.22,0-2.45.23-3.2.47v11.88c.64.12,1.75.23,2.85.23,4.95,0,7.4-2.21,7.4-6.17,0-4.37-2.39-6.41-7.05-6.41Z"/>
    <path d="M433.17,125.13v-42.18h9.9v42.18h-9.9Z"/>
    <path d="M459.56,125.83c-4.25,0-8.8-.99-11.19-2.27l3.2-8.62c1.86,1.11,4.84,1.98,7.52,1.98,3.15,0,4.89-1.63,4.89-3.9s-2.1-3.61-4.72-4.84c-4.43-2.1-10.37-5.24-10.37-12.93s5.13-12.99,14.04-12.99c4.31,0,7.87.99,10.14,2.27l-3.03,7.92c-1.51-.82-4.08-1.75-6.64-1.75-2.91,0-4.6,1.63-4.6,3.9s2.16,3.61,4.78,4.95c4.43,2.27,10.6,5.24,10.6,12.88s-5.13,13.4-14.62,13.4Z"/>
    <path d="M495.1,91.22v33.91h-9.9v-33.91h-8.04v-8.27h25.98v8.27h-8.04Z"/>
    <path d="M530.35,125.13l-2.45-8.56h-13.4l-2.45,8.56h-10.37l13.63-42.18h11.77l13.63,42.18h-10.37ZM522.31,96.41c-.7-2.45-1.05-5.3-1.05-5.3h-.12s-.35,2.85-1.05,5.3l-3.73,12.99h9.67l-3.73-12.99Z"/>
    <path d="M559.89,125.83c-9.44,0-16.89-7.17-16.89-21.79s7.46-21.79,16.89-21.79c3.73,0,7.17.93,9.21,2.27l-3.03,7.86c-1.11-.82-2.85-1.51-4.89-1.51-4.84,0-7.98,4.66-7.98,13.05s3.15,13.11,7.98,13.11c2.04,0,3.79-.76,4.89-1.57l3.03,8.1c-2.04,1.34-5.3,2.27-9.21,2.27Z"/>
    <path d="M594.38,125.13v-17.19h-10.31v17.19h-9.9v-42.18h9.9v16.89h10.31v-16.89h9.9v42.18h-9.9Z"/>
    <path d="M611.28,125.13v-42.18h9.9v42.18h-9.9Z"/>
    <path d="M643.44,125.83c-11.24,0-16.43-9.38-16.43-21.79s5.18-21.79,16.43-21.79,16.43,9.38,16.43,21.79-5.18,21.79-16.43,21.79ZM643.44,90.93c-4.31,0-6.52,4.95-6.52,13.11s2.21,13.11,6.52,13.11,6.53-4.95,6.53-13.11-2.21-13.11-6.53-13.11Z"/>
  </g>
</svg>