<?xml version="1.0" encoding="UTF-8"?>
<svg id="katman_1" xmlns="http://www.w3.org/2000/svg" version="1.1" viewBox="0 0 662.04 175.09">
  <!-- Generator: Adobe Illustrator 29.4.0, SVG Export Plug-In . SVG Version: 2.1.0 Build 152)  -->
  <defs>
    <style>
      .st0 {
        isolation: isolate;
      }

      .st1 {
        fill: #057538;
      }
    </style>
  </defs>
  <path class="st1" d="M395.13.87c.73,0,1.44.24,2.06.63,1.46.9,3.13,1.18,4.67,2.36,7.99,5.2,35.5,41.63,42.46,36.53l23.38-21.14c.18-.16.37-.31.58-.44,1.95-1.15,4.22-1.31,6.28-.43.35.15.67.38.95.64l35.63,33c.19.17.35.37.5.58,4.85,6.66,26.98,6.87,28.53,11.97,2.35,7.73-9.35,6.71-14.31,6.28-24.48-2.11-31.2-22.71-49.57-34.43-5.15-3.28-8.79,1.43-12.96,4.93-11.58,9.73-25.81,26.24-38.03,33.97-4.06,2.57-11.28,2.07-13.51-2.48s14.88-13.36,17.29-20.47c.46-1.34.04-2.83-1-3.8l-27.83-26.1c-2.77-2.51-5.7-3.28-9.25-2.35-.47.12-.9.36-1.28.66-6.78,5.37-39.25,28.58-39.36,32.57-.08,2.89,9.58,12.12,11.96,15.05,5.21,6.43,20.98,25.08,21.93,32.06,3.13,22.84-21.3,45.36-59.5,39.21-11.13-1.79-20.47-6.72-28.43-15.27-24.3-26.09,5.26-47.73,22.82-65.83.13-.14.27-.26.42-.37l3.89-2.9c1.95-1.46,1.98-4.38.06-5.88l-35.49-27.59c-.51-.4-1.11-.69-1.76-.74-2.02-.17-4.02.91-5.86,1.77-.26.12-.51.27-.74.46l-29.75,23.71c-1.12.89-1.68,2.36-1.29,3.74,1.93,6.82,19.2,13.95,13.79,22.44-3.4,5.34-10.81,1.51-14.55-1.35-11.08-8.5-22.79-23.97-34.03-31.97-1.63-1.16-4.12-2.81-6.1-3-9.47-.91-30.65,22.52-41.62,26.27-5.67,1.94-33.83,6.84-30.64-4.56,1.82-6.49,11.26-4.22,16.12-4.96,13.6-2.08,34.65-22.94,46.85-31.15,6.47-4.36,9.1-8.22,16.82-3.04,6.34,4.25,15.1,19.34,23.1,18.23.59-.08,1.15-.33,1.63-.68,11.95-8.67,22.59-19.86,34.44-28.52,7.06-5.16,10.17-9.68,18.8-4.01,13.63,8.95,26.35,24.7,39.62,34.38,1.56,1.14,3.09,2.56,4.94,2.99,1.02.23,2.09-.06,2.92-.7L392.35,1.63c.64-.49,1.43-.76,2.24-.76h.54ZM336.08,63.02c-2.85.52-21,18.17-23.57,21.52-15.52,20.22-9.1,40.92,17.35,43.31,26.25,2.38,49.14-10.56,32.68-38.68-2.63-4.5-16.8-21.57-20.69-24.3-2-1.41-3.1-2.34-5.76-1.85h0Z"/>
  <g>
    <path d="M18.91,125.83c-11.24,0-16.43-9.38-16.43-21.79s5.19-21.79,16.43-21.79,16.43,9.38,16.43,21.79-5.19,21.79-16.43,21.79ZM18.91,90.93c-4.31,0-6.52,4.95-6.52,13.11s2.21,13.11,6.52,13.11,6.52-4.95,6.52-13.11-2.21-13.11-6.52-13.11Z"/>
    <path d="M62.78,125.13l-11.59-20.57h-.12v20.57h-9.9v-42.18h9.9v18.93h.12l11.48-18.93h11.01l-12.58,20.27,12.88,21.91h-11.2Z"/>
    <path d="M96.11,108.76v16.37h-9.9v-16.37l-12-25.81h10.6l6.29,15.85h.12l6.29-15.85h10.66l-12.06,25.81Z"/>
    <path d="M132.87,125.13l-2.45-8.56h-13.4l-2.45,8.56h-10.37l13.63-42.18h11.77l13.63,42.18h-10.37,0ZM124.83,96.41c-.7-2.45-1.05-5.3-1.05-5.3h-.12s-.35,2.85-1.05,5.3l-3.73,12.99h9.67l-3.73-12.99h.01Z"/>
    <path d="M161.19,108.76v16.37h-9.9v-16.37l-12-25.81h10.6l6.29,15.85h.12l6.29-15.85h10.66l-12.06,25.81Z"/>
    <path d="M176.69,125.13v-42.18h9.9v33.91h11.65v8.27h-21.56.01Z"/>
    <path d="M228.54,125.13l-2.45-8.56h-13.4l-2.45,8.56h-10.37l13.63-42.18h11.77l13.63,42.18h-10.37,0ZM220.5,96.41c-.7-2.45-1.05-5.3-1.05-5.3h-.12s-.35,2.85-1.05,5.3l-3.73,12.99h9.67l-3.73-12.99h0Z"/>
    <path d="M264.14,125.13l-4.6-12.53c-.82-2.27-2.45-3.84-5.01-3.84h-2.45v16.37h-9.73v-40.61c3.5-1.46,8.33-2.27,13.28-2.27,10.89,0,16.49,4.83,16.49,13.11,0,5.77-3.67,8.85-7.4,10.25v.12c2.21,1.28,3.79,3.67,4.84,6.47l5.01,12.93h-10.43ZM255.86,89.65c-1.34,0-2.91.17-3.79.47v11.65h3.79c4.37,0,6.52-1.92,6.52-5.83s-1.92-6.29-6.52-6.29Z"/>
  </g>
  <g class="st0">
    <path d="M270.73,167.24l-1.19-4.17h-6.53l-1.19,4.17h-5.05l6.64-20.55h5.73l6.64,20.55h-5.05ZM266.81,153.25c-.34-1.19-.51-2.58-.51-2.58h-.06s-.17,1.39-.51,2.58l-1.82,6.33h4.71l-1.82-6.33Z"/>
    <path d="M285.89,167.24v-9.93c0-1.28-.77-2.04-2.16-2.04-.65,0-1.36.14-1.76.31v11.67h-4.68v-14.53c1.7-.65,3.72-1.11,6.39-1.11,4.8,0,6.9,1.84,6.9,5.17v10.47h-4.68Z"/>
    <path d="M298.91,167.5c-3.18,0-4.51-1.73-4.51-5.17v-6.9h-1.82v-3.49h1.82v-3.26l4.57-1.28v4.54h2.67v3.49h-2.67v6.56c0,1.05.62,1.39,1.5,1.39.43,0,.88-.11,1.16-.26v3.86c-.51.26-1.62.51-2.72.51Z"/>
    <path d="M317.45,160.2l-9.54,1.25c.37,1.67,1.82,2.5,3.72,2.5,1.53,0,3.18-.37,4.31-.94l1.31,3.46c-1.39.65-3.69,1.11-5.99,1.11-5.31,0-7.92-3.46-7.92-8s2.72-7.97,7.32-7.97,6.84,2.98,6.84,7.18c0,.48,0,.94-.06,1.42ZM310.55,154.9c-1.65,0-2.92,1.13-2.95,3.66l5.39-.68c0-1.93-.94-2.98-2.44-2.98Z"/>
    <path d="M326.64,167.38c-.68,0-1.48-.11-1.9-.25v6.21h-4.68v-20.63c1.22-.62,3.49-1.11,5.96-1.11,5.08,0,7.83,2.84,7.83,7.95,0,4.74-2.47,7.83-7.21,7.83ZM326.1,155.18c-.54,0-1.08.11-1.36.23v8.23c.26.11.85.23,1.39.23,1.99,0,3.04-1.76,3.04-4.31,0-2.87-1.11-4.37-3.07-4.37Z"/>
    <path d="M348.01,150.73v4.2h5.62v3.95h-5.62v8.37h-4.74v-20.55h11.01v4.03h-6.27Z"/>
    <path d="M356.83,167.24v-15.3h4.68v15.3h-4.68Z"/>
    <path d="M368.95,167.58c-2.04,0-4.06-.54-5.19-1.11l1.48-3.52c.74.45,2.55.96,3.58.96,1.08,0,1.76-.51,1.76-1.28,0-.88-.85-1.25-1.96-1.65-1.82-.65-4.46-1.59-4.46-4.71,0-2.87,2.18-4.68,5.93-4.68,2.1,0,3.75.45,4.97,1.11l-1.39,3.15c-.62-.37-1.99-.85-2.95-.85-1.11,0-1.76.51-1.76,1.25,0,.94.85,1.31,1.99,1.7,1.87.65,4.51,1.5,4.51,4.71,0,3.01-2.16,4.91-6.5,4.91Z"/>
    <path d="M383.29,167.5c-3.18,0-4.51-1.73-4.51-5.17v-6.9h-1.82v-3.49h1.82v-3.26l4.57-1.28v4.54h2.67v3.49h-2.67v6.56c0,1.05.62,1.39,1.5,1.39.43,0,.88-.11,1.16-.26v3.86c-.51.26-1.62.51-2.72.51Z"/>
    <path d="M388.54,167.24v-15.3h4.68v15.3h-4.68Z"/>
    <path d="M402.61,173.63c-2.7,0-4.71-.51-6.19-1.22l1.28-3.63c1.05.54,2.64.91,4.4.91,1.99,0,2.87-.96,2.87-2.78v-.74c-.71.31-1.76.48-2.64.48-3.92,0-6.53-2.75-6.53-7.29,0-5.08,3.04-7.75,8.12-7.75,2.33,0,4.37.48,5.68,1.11v14.19c0,4.46-2.78,6.73-6.98,6.73ZM403.26,150.44c-2.87,0-4.31-1.79-4.46-4.54l2.55-.43c.11,1.48.68,2.3,1.9,2.3s1.79-.82,1.9-2.3l2.55.43c-.14,2.75-1.59,4.54-4.46,4.54ZM404.97,155.35c-.34-.11-.88-.2-1.5-.2-1.82,0-2.98,1.31-2.98,4.03s1.11,4,2.92,4c.54,0,1.22-.17,1.56-.34v-7.49Z"/>
    <path d="M412.69,167.24v-15.3h4.68v15.3h-4.68Z"/>
  </g>
  <g>
    <path d="M411.26,109.63c-1.17,0-2.56-.12-3.32-.23v15.73h-9.73v-40.61c3.38-1.46,7.75-2.27,12.82-2.27,10.95,0,16.89,5.42,16.89,13.81,0,7.81-5.54,13.57-16.66,13.57h0ZM411.15,89.65c-1.22,0-2.45.23-3.2.47v11.88c.64.12,1.75.23,2.85.23,4.95,0,7.4-2.21,7.4-6.17,0-4.37-2.39-6.41-7.05-6.41Z"/>
    <path d="M433.17,125.13v-42.18h9.9v42.18h-9.9Z"/>
    <path d="M459.56,125.83c-4.25,0-8.8-.99-11.19-2.27l3.2-8.62c1.86,1.11,4.84,1.98,7.52,1.98,3.15,0,4.89-1.63,4.89-3.9s-2.1-3.61-4.72-4.84c-4.43-2.1-10.37-5.24-10.37-12.93s5.13-12.99,14.04-12.99c4.31,0,7.87.99,10.14,2.27l-3.03,7.92c-1.51-.82-4.08-1.75-6.64-1.75-2.91,0-4.6,1.63-4.6,3.9s2.16,3.61,4.78,4.95c4.43,2.27,10.6,5.24,10.6,12.88s-5.13,13.4-14.62,13.4h0Z"/>
    <path d="M495.1,91.22v33.91h-9.9v-33.91h-8.04v-8.27h25.98v8.27h-8.04Z"/>
    <path d="M530.35,125.13l-2.45-8.56h-13.4l-2.45,8.56h-10.37l13.63-42.18h11.77l13.63,42.18h-10.37.01ZM522.31,96.41c-.7-2.45-1.05-5.3-1.05-5.3h-.12s-.35,2.85-1.05,5.3l-3.73,12.99h9.67l-3.73-12.99h0Z"/>
    <path d="M559.89,125.83c-9.44,0-16.89-7.17-16.89-21.79s7.46-21.79,16.89-21.79c3.73,0,7.17.93,9.21,2.27l-3.03,7.86c-1.11-.82-2.85-1.51-4.89-1.51-4.84,0-7.98,4.66-7.98,13.05s3.15,13.11,7.98,13.11c2.04,0,3.79-.76,4.89-1.57l3.03,8.1c-2.04,1.34-5.3,2.27-9.21,2.27Z"/>
    <path d="M594.38,125.13v-17.19h-10.31v17.19h-9.9v-42.18h9.9v16.89h10.31v-16.89h9.9v42.18h-9.9Z"/>
    <path d="M611.28,125.13v-42.18h9.9v42.18h-9.9Z"/>
    <path d="M643.44,125.83c-11.24,0-16.43-9.38-16.43-21.79s5.18-21.79,16.43-21.79,16.43,9.38,16.43,21.79-5.18,21.79-16.43,21.79ZM643.44,90.93c-4.31,0-6.52,4.95-6.52,13.11s2.21,13.11,6.52,13.11,6.53-4.95,6.53-13.11-2.21-13.11-6.53-13.11Z"/>
  </g>
</svg>